<?xml version="1.0" encoding="UTF-8"?>
<svg width="512px" height="512px" viewBox="0 0 512 512" version="1.1" xmlns="http://www.w3.org/2000/svg" xmlns:xlink="http://www.w3.org/1999/xlink">
    <!-- Generator: Sketch 58 (84663) - https://sketch.com -->
    <title>GPXReplay</title>
    <desc>Created with Sketch.</desc>
    <defs>
        <linearGradient x1="50%" y1="0%" x2="50%" y2="99.4298986%" id="linearGradient-1">
            <stop stop-color="#D33E43" offset="0%"></stop>
            <stop stop-color="#912A2E" offset="100%"></stop>
        </linearGradient>
        <path d="M146.141456,-5.90428975e-15 L365.858544,5.90428975e-15 C416.675112,-3.43056238e-15 435.102427,5.29105984 453.680205,15.2265641 C472.257983,25.1620684 486.837932,39.7420171 496.773436,58.3197949 C506.70894,76.8975727 512,95.3248882 512,146.141456 L512,365.858544 C512,416.675112 506.70894,435.102427 496.773436,453.680205 C486.837932,472.257983 472.257983,486.837932 453.680205,496.773436 C435.102427,506.70894 416.675112,512 365.858544,512 L146.141456,512 C95.3248882,512 76.8975727,506.70894 58.3197949,496.773436 C39.7420171,486.837932 25.1620684,472.257983 15.2265641,453.680205 C5.29105984,435.102427 2.28704159e-15,416.675112 -3.93619317e-15,365.858544 L3.93619317e-15,146.141456 C-2.28704159e-15,95.3248882 5.29105984,76.8975727 15.2265641,58.3197949 C25.1620684,39.7420171 39.7420171,25.1620684 58.3197949,15.2265641 C76.8975727,5.29105984 95.3248882,3.43056238e-15 146.141456,-5.90428975e-15 Z" id="path-2"></path>
    </defs>
    <g id="GPXReplay" stroke="none" stroke-width="1" fill="none" fill-rule="evenodd">
        <g id="Path">
            <use fill="#854D4D" xlink:href="#path-2"></use>
            <use fill="url(#linearGradient-1)" xlink:href="#path-2"></use>
        </g>
        <g id="TargetLocation" transform="translate(52.000000, 30.000000)" fill="#FFFFFF">
            <g id="Group">
                <g transform="translate(201.000000, 224.000000) scale(-1, 1) rotate(-180.000000) translate(-201.000000, -224.000000) translate(0.000000, -0.000000)" fill-rule="nonzero">
                    <path d="M188.746652,410.384128 C159.168985,406.927706 141.566523,402.105474 119.225097,391.178991 C99.6952052,381.614128 82.415378,368.919633 66.5015119,352.362324 C37.9671706,322.78792 20.6873434,286.866269 15.0600864,245.317982 C13.5307127,233.985107 13.6941253,208.432722 15.4623326,196.697645 C21.5714471,155.710765 39.8149892,119.386911 68.9904104,90.135107 C95.4339093,63.6149235 130.475421,44.8874006 166.480648,37.8991437 C190.590281,33.2361162 220.972441,33.5587156 244.122549,38.7831498 C266.945832,43.8441896 289.932527,53.6520489 308.419093,66.0281346 L315.571533,70.850367 L322.803585,63.4557187 C326.742246,59.3582875 341.85162,43.5257798 356.399525,28.1750765 C370.94743,12.8243731 383.081857,0.209480122 383.404492,0.0460856269 C384.129374,-0.272324159 401.727646,16.1174006 401.727646,17.1648012 C401.727646,17.4874006 387.502376,32.8339144 370.222549,51.079633 C352.86311,69.3211621 337.912959,85.0740673 337.108467,86.0376758 C335.583283,87.8056881 335.583283,87.8056881 341.528985,93.9937309 C367.411015,121.075321 385.093089,157.239969 390.879568,194.690826 C392.727387,206.744312 393.288855,227.642049 392.165918,239.695535 C389.195162,270.153945 379.38622,298.521743 362.910886,323.914924 C333.333218,369.724037 285.755032,400.341651 230.940605,408.859113 C223.306307,410.061529 194.692354,411.10893 188.746652,410.384128 Z M230.940605,358.629969 C249.506782,354.691743 269.598143,345.931284 284.389071,335.486606 C294.193823,328.573761 310.669158,312.100245 317.582765,302.376177 C324.010324,293.213517 332.453305,276.660398 335.826307,266.374924 C352.301641,216.468379 339.605745,162.464404 302.473391,125.097339 C281.334514,103.881193 254.086523,90.1392966 223.708553,85.3170642 C213.983413,83.7082569 190.033002,84.0308563 180.307862,85.7192661 C149.607257,91.2621101 123.804838,105.008196 102.184104,127.51055 C43.1083801,188.909174 53.5584017,288.479266 124.207084,336.697401 C142.04838,348.914281 160.694168,356.30474 182.717149,359.840765 C193.649028,361.604587 220.331361,360.959388 230.940605,358.629969 Z" id="Shape"></path>
                    <path d="M178.746652,444.384128 C149.168985,440.927706 131.566523,436.105474 109.225097,425.178991 C89.6952052,415.614128 72.415378,402.919633 56.5015119,386.362324 C27.9671706,356.78792 10.6873434,320.866269 5.06008639,279.317982 C3.53071274,267.985107 3.69412527,242.432722 5.46233261,230.697645 C11.5714471,189.710765 29.8149892,153.386911 58.9904104,124.135107 C85.4339093,97.6149235 120.475421,78.8874006 156.480648,71.8991437 C180.590281,67.2361162 210.972441,67.5587156 234.122549,72.7831498 C256.945832,77.8441896 279.932527,87.6520489 298.419093,100.028135 L305.571533,104.850367 L312.803585,97.4557187 C316.742246,93.3582875 331.85162,77.5257798 346.399525,62.1750765 C360.94743,46.8243731 373.081857,34.2094801 373.404492,34.0460856 C374.129374,33.7276758 391.727646,50.1174006 391.727646,51.1648012 C391.727646,51.4874006 377.502376,66.8339144 360.222549,85.079633 C342.86311,103.321162 327.912959,119.074067 327.108467,120.037676 C325.583283,121.805688 325.583283,121.805688 331.528985,127.993731 C357.411015,155.075321 375.093089,191.239969 380.879568,228.690826 C382.727387,240.744312 383.288855,261.642049 382.165918,273.695535 C379.195162,304.153945 369.38622,332.521743 352.910886,357.914924 C323.333218,403.724037 275.755032,434.341651 220.940605,442.859113 C213.306307,444.061529 184.692354,445.10893 178.746652,444.384128 Z M220.940605,392.629969 C239.506782,388.691743 259.598143,379.931284 274.389071,369.486606 C284.193823,362.573761 300.669158,346.100245 307.582765,336.376177 C314.010324,327.213517 322.453305,310.660398 325.826307,300.374924 C342.301641,250.468379 329.605745,196.464404 292.473391,159.097339 C271.334514,137.881193 244.086523,124.139297 213.708553,119.317064 C203.983413,117.708257 180.033002,118.030856 170.307862,119.719266 C139.607257,125.26211 113.804838,139.008196 92.1841037,161.51055 C33.1083801,222.909174 43.5584017,322.479266 114.207084,370.697401 C132.04838,382.914281 150.694168,390.30474 172.717149,393.840765 C183.649028,395.604587 210.331361,394.959388 220.940605,392.629969 Z" id="Shape-Copy" transform="translate(197.871586, 239.332094) rotate(-179.000000) translate(-197.871586, -239.332094) "></path>
                    <path d="M188.746652,333.761804 C173.71689,331.352783 162.625788,327.816758 151.132441,321.867523 C119.304708,305.314404 97.6839741,276.301407 91.0930022,241.100367 C89.1655724,230.974098 89.1655724,212.971376 91.0133909,202.526697 C97.2817279,167.325657 120.109201,136.867248 152.259568,120.71633 C160.698359,116.455505 170.984968,112.91948 180.953132,110.749266 C192.769114,108.256453 213.744579,108.256453 225.640173,110.828869 C251.279179,116.29211 272.01581,128.270183 289.052613,147.395719 C301.991533,161.946208 310.509935,178.901529 315.089676,199.392875 C317.662376,211.127951 317.662376,231.941896 315.089676,244.154587 C305.125702,290.445505 268.232181,325.566942 221.295076,333.120795 C214.704104,334.243519 193.967473,334.64581 188.746652,333.761804 Z M218.483542,300.973976 C240.665745,296.310948 255.456674,280.721437 259.956803,257.335076 C263.011361,241.263761 260.438661,229.36948 248.945313,206.544526 C240.104276,189.023609 222.342592,161.380612 208.117322,143.218685 L204.178661,138.157645 L200.24,143.139083 C180.86933,168.213853 161.900907,198.672263 153.784752,217.877401 C148.48013,230.412691 146.632311,238.934343 147.273391,248.256208 C148.961987,275.580795 163.912138,294.70633 188.344406,300.655566 C195.576458,302.419388 210.685832,302.582783 218.483542,300.973976 Z" id="Shape"></path>
                    <path d="M196.301339,276.142202 C181.028553,272.446972 170.260086,258.864281 170.260086,243.190979 C170.260086,233.546514 173.796501,225.590459 181.112354,218.681804 C197.6673,203.012691 224.994903,208.232936 234.799654,228.887676 C237.208942,233.948716 237.372354,234.836911 237.372354,243.111376 C237.372354,251.792232 237.292743,252.190245 234.317797,258.13948 C227.244968,272.526575 211.649546,279.837431 196.301339,276.142202 Z" id="Path"></path>
                </g>
            </g>
        </g>
    </g>
</svg>