<?xml version="1.0" encoding="utf-8"?>
<!-- Svg Vector Icons : http://www.onlinewebfonts.com/icon -->
<!DOCTYPE svg PUBLIC "-//W3C//DTD SVG 1.1//EN" "http://www.w3.org/Graphics/SVG/1.1/DTD/svg11.dtd">
<svg version="1.1" xmlns="http://www.w3.org/2000/svg" xmlns:xlink="http://www.w3.org/1999/xlink" x="0px" y="0px" viewBox="0 0 1000 1000" enable-background="new 0 0 1000 1000" xml:space="preserve">
<metadata> Svg Vector Icons : http://www.onlinewebfonts.com/icon </metadata>
<g><g transform="translate(0.000000,512.000000) scale(0.100000,-0.100000)"><path d="M4543.5,5014.3c-705.9-82.5-1126-197.6-1659.2-458.4c-466.1-228.3-878.5-531.3-1258.3-926.5C945,2923.5,532.6,2066.1,398.3,1074.4C361.8,803.9,365.7,194,407.9-86.1c145.8-978.3,581.2-1845.3,1277.5-2543.5c631.1-633,1467.4-1080,2326.7-1246.8c575.4-111.3,1300.5-103.6,1853,21.1c544.7,120.8,1093.3,354.9,1534.5,650.3l170.7,115.1l172.6-176.5c94-97.8,454.6-475.7,801.8-842.1c347.2-366.4,636.8-667.5,644.5-671.4c17.3-7.6,437.3,383.6,437.3,408.6c0,7.7-339.5,374-751.9,809.5c-414.3,435.4-771.1,811.4-790.3,834.4c-36.4,42.2-36.4,42.2,105.5,189.9c617.7,646.4,1039.7,1509.6,1177.8,2403.5c44.1,287.7,57.5,786.5,30.7,1074.2c-70.9,727-305,1404.1-698.2,2010.2c-705.9,1093.4-1841.4,1824.2-3149.6,2027.5C5368.3,5006.6,4685.4,5031.6,4543.5,5014.3z M5550.5,3779c443.1-94,922.6-303.1,1275.6-552.4c234-165,627.2-558.2,792.2-790.3c153.4-218.7,354.9-613.8,435.4-859.3c393.2-1191.2,90.2-2480.2-796-3372.1c-504.5-506.4-1154.8-834.4-1879.8-949.5c-232.1-38.4-803.7-30.7-1035.8,9.6c-732.7,132.3-1348.5,460.4-1864.5,997.5c-1409.9,1465.5-1160.5,3842.1,525.6,4993c425.8,291.6,870.8,468,1396.4,552.4C4660.5,3850,5297.3,3834.6,5550.5,3779z"/><path d="M4543.5,3209.3c-358.7-57.5-623.4-141.9-897.7-283.9c-759.6-395.1-1275.6-1087.6-1432.9-1927.8c-46-241.7-46-671.4-1.9-920.7c149.6-840.2,694.4-1567.2,1461.7-1952.7c201.4-101.7,446.9-186.1,684.8-237.9c282-59.5,782.6-59.5,1066.5,1.9c611.9,130.4,1106.8,416.3,1513.4,872.8C7246.2-891.7,7449.5-487,7558.8,2.1c61.4,280.1,61.4,776.9,0,1068.4C7321,2175.4,6440.5,3013.7,5320.3,3194C5163,3220.8,4668.1,3230.4,4543.5,3209.3z M5253.2,2426.7c529.4-111.3,882.4-483.4,989.8-1041.6c72.9-383.6,11.5-667.5-262.8-1212.3c-211-418.2-634.9-1078-974.4-1511.5l-94-120.8l-94,118.9c-462.3,598.5-915,1325.5-1108.7,1783.9c-126.6,299.2-170.7,502.6-155.4,725.1c40.3,652.2,397.1,1108.7,980.2,1250.7C4706.5,2461.2,5067.1,2465.1,5253.2,2426.7z"/><path d="M4723.8,1834c-364.5-88.2-621.5-412.4-621.5-786.5c0-230.2,84.4-420.1,259-585c395.1-374,1047.3-249.4,1281.3,243.6c57.5,120.8,61.4,142,61.4,339.5c0,207.2-1.9,216.7-72.9,358.7C5462.3,1747.7,5090.1,1922.2,4723.8,1834z"/></g></g>
</svg>